<?xml version="1.0" encoding="UTF-8" standalone="no"?>
<!-- Created with Inkscape (http://www.inkscape.org/) -->

<svg
   width="24"
   height="24"
   viewBox="0 0 24 24"
   version="1.1"
   id="svg1"
   xmlns="http://www.w3.org/2000/svg"
   xmlns:svg="http://www.w3.org/2000/svg">
  <defs
     id="defs1" />
  <rect
     style="fill:#d54247;stroke-width:1.5;stroke-linecap:round;fill-opacity:1"
     id="rect1"
     width="24"
     height="16"
     x="0"
     y="4"
     rx="2.5625"
     ry="2.5625" />
  <g
     id="layer1">
    <g
       id="g23"
       transform="translate(0.90796429,0.89596614)">
      <path
         id="path1"
         style="fill:#ffffff;stroke:none;stroke-width:4.96512;fill-opacity:1"
         d="m 1.7449201,8.510465 c -0.5037057,0 0.040885,0.985829 0.04073,1.489535 0,3.016373 2.1969985,5.461628 5.2133722,5.461628 3.0163707,0 5.2133707,-2.445255 5.2133707,-5.461628 4.74e-4,-0.5036154 0.546283,-1.489535 0.04269,-1.489535 z m 3.8227518,3.053779 c 0.3585705,0.375137 0.8566046,0.606872 1.4197128,0.607064 0.5631084,-1.92e-4 1.0611419,-0.231927 1.419713,-0.607064 0.2838277,-0.29785 0.7553998,-0.309134 1.0531491,-0.0252 0.2978533,0.283824 0.309142,0.755396 0.025215,1.053148 C 8.8574649,13.249193 7.9647324,13.660516 6.9873875,13.660841 6.0100424,13.660516 5.1192493,13.249193 4.4912526,12.592179 4.2068038,12.294956 4.2172252,11.823398 4.5145276,11.539031 4.6574143,11.40277 4.8485613,11.328823 5.046081,11.333449 c 0.19752,0.0046 0.3852151,0.08766 0.5215961,0.230794 z" />
      <path
         id="circle2"
         style="fill:none;stroke:#ffffff;stroke-width:1.5;stroke-linecap:round;stroke-linejoin:miter;stroke-dasharray:none;stroke-opacity:1"
         d="m 7.8674263,14.926207 c 0.6622101,0.773903 1.585573,1.254159 2.6069777,1.254159 2.014734,0 3.647999,-1.868578 3.647999,-4.173579 m 5.785723,2.461818 c 0,-4.744961 -0.877945,-6.6353948 -2.892677,-6.6353948 -2.014735,0 -2.893046,1.8685738 -2.893046,4.1735768" />
      <path
         style="fill:#000000;stroke:#ffffff;stroke-width:1.5;stroke-linecap:round;stroke-linejoin:miter;stroke-dasharray:none;stroke-opacity:1"
         d="M 4.7645205,8.510465 V 6.0279067"
         id="path3" />
      <path
         style="fill:#000000;stroke:#ffffff;stroke-width:1.5;stroke-linecap:round;stroke-linejoin:miter;stroke-dasharray:none;stroke-opacity:1"
         d="M 9.2331248,8.510465 V 6.0279067"
         id="path4" />
    </g>
  </g>
</svg>
