<?xml version="1.0" encoding="UTF-8" standalone="no"?>
<!-- Created with Inkscape (http://www.inkscape.org/) -->

<svg
   width="24"
   height="24"
   viewBox="0 0 24 24"
   version="1.1"
   id="svg1"
   xmlns="http://www.w3.org/2000/svg"
   xmlns:svg="http://www.w3.org/2000/svg">
  <defs
     id="defs1" />
  <g
     id="layer1">
    <g
       id="g23"
       transform="translate(0.90796429,0.89596614)">
      <path
         id="rect23"
         style="fill:#000000;fill-opacity:1;stroke:none;stroke-width:1.5;stroke-linecap:round;stroke-linejoin:miter;stroke-dasharray:none;stroke-opacity:1"
         d="M 1.6545357 3.1040339 C 0.23491071 3.1040339 -0.90796429 4.2469089 -0.90796429 5.6665339 L -0.90796429 16.541534 C -0.90796429 17.961159 0.23491071 19.104034 1.6545357 19.104034 L 20.529536 19.104034 C 21.949161 19.104034 23.092036 17.961159 23.092036 16.541534 L 23.092036 5.6665339 C 23.092036 4.2469089 21.949161 3.1040339 20.529536 3.1040339 L 1.6545357 3.1040339 z M 4.7639107 5.277862 A 0.75 0.75 0 0 1 5.5139107 6.027862 L 5.5139107 8.5102839 L 8.4826607 8.5102839 L 8.4826607 6.027862 A 0.75 0.75 0 0 1 9.2326607 5.277862 A 0.75 0.75 0 0 1 9.9826607 6.027862 L 9.9826607 8.5102839 L 12.254145 8.5102839 C 12.75773 8.5102839 12.213603 9.4969032 12.213129 10.000518 C 12.213129 12.255692 10.984564 14.190679 9.1037545 15.023956 C 9.5150535 15.286683 9.9801269 15.430206 10.474848 15.430206 C 12.025854 15.430206 13.373286 13.957092 13.373286 12.006378 C 13.373286 10.758616 13.597659 9.5884523 14.177973 8.6587214 C 14.758288 7.7289906 15.776633 7.0845026 17.015864 7.0845026 C 18.257806 7.0845026 19.34965 7.8186297 19.902583 9.0688776 C 20.455516 10.319125 20.658442 12.050531 20.658442 14.469268 A 0.75 0.75 0 0 1 19.908442 15.219268 A 0.75 0.75 0 0 1 19.158442 14.469268 C 19.158442 12.143044 18.921211 10.557509 18.531489 9.6762995 C 18.141767 8.7950901 17.788654 8.5845026 17.015864 8.5845026 C 16.24036 8.5845026 15.811983 8.8728364 15.449458 9.4536432 C 15.086933 10.03445 14.873286 10.949138 14.873286 12.006378 C 14.873286 14.665667 12.953311 16.930206 10.474848 16.930206 C 9.2203544 16.930206 8.0873436 16.335111 7.3010201 15.418487 C 7.3102247 15.4294 7.3189324 15.440904 7.3283638 15.45169 C 7.2192597 15.45829 7.1096908 15.461456 6.9982857 15.461456 C 3.981912 15.461456 1.7853951 13.016891 1.7853951 10.000518 C 1.7855501 9.4968126 1.2406738 8.5102839 1.7443795 8.5102839 L 4.0139107 8.5102839 L 4.0139107 6.027862 A 0.75 0.75 0 0 1 4.7639107 5.277862 z M 9.1037545 15.023956 C 9.0014806 14.958642 8.9040229 14.882969 8.8088326 14.803253 C 8.9040444 14.883062 9.0014261 14.958591 9.1037545 15.023956 z M 5.0451607 11.332549 C 4.847641 11.327923 4.6567974 11.40332 4.5139107 11.539581 C 4.2166083 11.823948 4.2060244 12.295092 4.4904732 12.592315 C 5.1184699 13.249329 6.0092219 13.660349 6.986567 13.660674 C 7.9639119 13.660349 8.8566179 13.249316 9.4846138 12.592315 C 9.7685418 12.294563 9.7590296 11.823405 9.4611763 11.539581 C 9.163427 11.255647 8.6903165 11.267121 8.4064888 11.564971 C 8.0479177 11.940108 7.5496754 12.170248 6.986567 12.17044 C 6.4234588 12.170248 5.9271687 11.940108 5.5685982 11.564971 C 5.4322172 11.421839 5.2426807 11.337149 5.0451607 11.332549 z M 8.4377388 14.439971 C 8.5229555 14.539561 8.6136789 14.629554 8.7072701 14.715362 C 8.6136675 14.629826 8.5228722 14.539464 8.4377388 14.439971 z " />
    </g>
  </g>
</svg>
