<?xml version="1.0" encoding="UTF-8" standalone="no"?>
<!-- Created with Inkscape (http://www.inkscape.org/) -->

<svg
   width="24"
   height="24"
   viewBox="0 0 24 24"
   version="1.1"
   id="svg1"
   xmlns="http://www.w3.org/2000/svg"
   xmlns:svg="http://www.w3.org/2000/svg">
  <defs
     id="defs1" />
  <path
     id="rect1"
     style="fill:#ffffff;fill-opacity:1;stroke-width:1.5;stroke-linecap:round"
     d="M -2.5625 4 C -1.142875 4 0 5.142875 0 6.5625 L 0 17.4375 C 0 18.857125 -1.142875 20 -2.5625 20 L -21.4375 20 C -22.857125 20 -24 18.857125 -24 17.4375 L -24 6.5625 C -24 5.142875 -22.857125 4 -21.4375 4 L -2.5625 4 z M -14.208984 6 C -14.623198 6 -14.958984 6.3357864 -14.958984 6.75 L -14.958984 9.2324219 L -17.927734 9.2324219 L -17.927734 6.75 C -17.927734 6.3357864 -18.26352 6 -18.677734 6 C -19.091948 6 -19.427734 6.3357864 -19.427734 6.75 L -19.427734 9.2324219 L -21.697266 9.2324219 C -22.200968 9.2324219 -21.656101 10.21895 -21.65625 10.722656 C -21.65625 13.739029 -19.459733 16.183594 -16.443359 16.183594 C -16.331952 16.183594 -16.222382 16.180428 -16.113281 16.173828 C -16.123938 16.16164 -16.134011 16.149027 -16.144531 16.136719 C -15.35807 17.055714 -14.225151 17.652344 -12.96875 17.652344 C -10.490288 17.652344 -8.5703125 15.387804 -8.5703125 12.728516 C -8.5703125 11.671275 -8.3814917 10.738989 -7.9921875 10.175781 C -7.6296625 9.6513146 -7.2033365 9.2975075 -6.4277344 9.3046875 C -5.8161694 9.3103509 -5.3436238 9.5281659 -4.9121094 10.396484 C -4.4833038 11.259352 -4.2851562 12.865182 -4.2851562 15.191406 C -4.2712124 16.177363 -2.7991002 16.177363 -2.7851562 15.191406 C -2.7851562 12.821572 -2.758805 11.180682 -2.65625 10.191406 C -2.607139 9.7176449 -2.5306756 9.392311 -2.4785156 9.2558594 C -2.1675754 9.1355273 -1.9734031 8.824375 -2.0019531 8.4921875 C -2.0371144 8.0788269 -2.4011703 7.7725298 -2.8144531 7.8085938 C -3.3123401 7.8511769 -3.6975249 8.2774666 -3.8574219 8.6601562 C -3.9254449 8.8229582 -3.9383238 8.8484092 -3.9804688 9.0351562 C -4.5830588 8.1801472 -5.4170584 7.8046875 -6.4277344 7.8046875 C -7.6669654 7.8046875 -8.685311 8.4511286 -9.265625 9.3808594 C -9.84594 10.31059 -10.070312 11.480753 -10.070312 12.728516 C -10.070312 14.679229 -11.417745 16.152344 -12.96875 16.152344 C -13.462022 16.152344 -13.927479 16.007926 -14.337891 15.746094 C -12.457787 14.91275 -11.230469 12.977721 -11.230469 10.722656 C -11.229989 10.219041 -10.683907 9.2324219 -11.1875 9.2324219 L -13.458984 9.2324219 L -13.458984 6.75 C -13.458984 6.3357864 -13.79477 6 -14.208984 6 z M -14.337891 15.746094 C -14.445791 15.677256 -14.548451 15.598488 -14.648438 15.513672 C -14.548845 15.597987 -14.445246 15.677509 -14.337891 15.746094 z M -14.648438 15.513672 C -14.675135 15.49107 -14.700469 15.467059 -14.726562 15.443359 C -14.700523 15.467054 -14.67508 15.491072 -14.648438 15.513672 z M -14.726562 15.443359 C -14.823617 15.355044 -14.917744 15.263134 -15.005859 15.160156 C -14.917751 15.263125 -14.823686 15.355145 -14.726562 15.443359 z M -14.513672 12.054688 C -14.323082 12.050127 -14.131297 12.119752 -13.982422 12.261719 C -13.684568 12.545543 -13.673099 13.016701 -13.957031 13.314453 C -14.585028 13.971454 -15.477733 14.382487 -16.455078 14.382812 C -17.432423 14.382486 -18.323175 13.971467 -18.951172 13.314453 C -19.235618 13.01723 -19.225031 12.546086 -18.927734 12.261719 C -18.784847 12.125458 -18.594003 12.050088 -18.396484 12.054688 C -18.198964 12.059286 -18.011381 12.143975 -17.875 12.287109 C -17.51643 12.662246 -17.018186 12.892386 -16.455078 12.892578 C -15.89197 12.892386 -15.393727 12.662246 -15.035156 12.287109 C -14.893242 12.138188 -14.704262 12.059287 -14.513672 12.054688 z "
     transform="scale(-1,1)" />
</svg>
